<svg width="1920" height="540" viewBox="0 0 1920 540" fill="none" xmlns="http://www.w3.org/2000/svg">
<rect width="1920" height="540" fill="black"/>
<g clip-path="url(#clip0_12_10)">
<path d="M462 420C544.843 420 612 352.843 612 270C612 187.157 544.843 120 462 120C379.157 120 312 187.157 312 270C312 352.843 379.157 420 462 420Z" fill="url(#paint0_linear_12_10)"/>
<path d="M413.536 280.965L431.333 330.222C431.333 330.222 433.558 334.831 435.94 334.831C438.323 334.831 473.759 297.966 473.759 297.966L513.165 221.854L414.171 268.25L413.536 280.965Z" fill="#C8DAEA"/>
<path d="M437.133 293.598L433.716 329.905C433.716 329.905 432.286 341.03 443.409 329.905C454.531 318.78 465.178 310.201 465.178 310.201" fill="#A9C6D8"/>
<path d="M413.858 282.722L377.25 270.795C377.25 270.795 372.875 269.02 374.284 264.995C374.574 264.165 375.159 263.459 376.909 262.245C385.02 256.591 527.041 205.545 527.041 205.545C527.041 205.545 531.051 204.194 533.416 205.093C534.001 205.274 534.528 205.607 534.942 206.058C535.356 206.51 535.642 207.063 535.773 207.661C536.028 208.718 536.135 209.806 536.09 210.892C536.079 211.832 535.965 212.704 535.879 214.07C535.014 228.026 509.129 332.186 509.129 332.186C509.129 332.186 507.58 338.281 502.031 338.49C500.668 338.534 499.309 338.303 498.037 337.811C496.764 337.319 495.604 336.575 494.625 335.625C483.736 326.259 446.101 300.966 437.785 295.404C437.597 295.276 437.439 295.109 437.322 294.915C437.204 294.721 437.129 294.504 437.103 294.279C436.986 293.693 437.624 292.966 437.624 292.966C437.624 292.966 503.156 234.716 504.9 228.601C505.035 228.128 504.525 227.894 503.84 228.101C499.488 229.703 424.035 277.351 415.708 282.61C415.108 282.791 414.475 282.83 413.858 282.722Z" fill="white"/>
</g>
<path d="M704.04 239H689.544V182.552H670.92V170.456H722.664V182.552H704.04V239ZM746.932 185.624C751.796 185.624 755.956 186.552 759.412 188.408C762.932 190.264 765.652 192.952 767.572 196.472C769.492 199.992 770.452 204.312 770.452 209.432V216.344H736.66C736.788 220.376 737.972 223.544 740.212 225.848C742.516 228.152 745.684 229.304 749.716 229.304C753.108 229.304 756.18 228.984 758.932 228.344C761.684 227.64 764.532 226.584 767.476 225.176V236.216C764.916 237.496 762.196 238.424 759.316 239C756.5 239.64 753.076 239.96 749.044 239.96C743.796 239.96 739.156 239 735.124 237.08C731.092 235.096 727.924 232.12 725.62 228.152C723.316 224.184 722.164 219.192 722.164 213.176C722.164 207.032 723.188 201.944 725.236 197.912C727.348 193.816 730.26 190.744 733.972 188.696C737.684 186.648 742.004 185.624 746.932 185.624ZM747.028 195.8C744.276 195.8 741.972 196.696 740.116 198.488C738.324 200.28 737.268 203.064 736.948 206.84H757.012C757.012 204.728 756.628 202.84 755.86 201.176C755.156 199.512 754.068 198.2 752.596 197.24C751.124 196.28 749.268 195.8 747.028 195.8ZM796.355 239H782.051V166.04H796.355V239ZM832.901 185.624C837.765 185.624 841.925 186.552 845.381 188.408C848.901 190.264 851.621 192.952 853.541 196.472C855.461 199.992 856.421 204.312 856.421 209.432V216.344H822.629C822.757 220.376 823.941 223.544 826.181 225.848C828.485 228.152 831.653 229.304 835.685 229.304C839.077 229.304 842.149 228.984 844.901 228.344C847.653 227.64 850.501 226.584 853.445 225.176V236.216C850.885 237.496 848.165 238.424 845.285 239C842.469 239.64 839.045 239.96 835.013 239.96C829.765 239.96 825.125 239 821.093 237.08C817.061 235.096 813.893 232.12 811.589 228.152C809.285 224.184 808.133 219.192 808.133 213.176C808.133 207.032 809.157 201.944 811.205 197.912C813.317 193.816 816.229 190.744 819.941 188.696C823.653 186.648 827.973 185.624 832.901 185.624ZM832.997 195.8C830.245 195.8 827.941 196.696 826.085 198.488C824.293 200.28 823.237 203.064 822.917 206.84H842.981C842.981 204.728 842.597 202.84 841.829 201.176C841.125 199.512 840.037 198.2 838.565 197.24C837.093 196.28 835.237 195.8 832.997 195.8ZM885.011 185.624C888.211 185.624 891.091 186.264 893.651 187.544C896.211 188.824 898.387 190.744 900.179 193.304H900.563L901.715 186.584H913.811V239.096C913.811 244.088 912.819 248.28 910.835 251.672C908.915 255.064 906.003 257.624 902.099 259.352C898.195 261.144 893.363 262.04 887.603 262.04C883.891 262.04 880.435 261.816 877.235 261.368C874.099 260.92 871.027 260.12 868.019 258.968V247.544C870.195 248.44 872.371 249.176 874.547 249.752C876.787 250.392 879.059 250.84 881.363 251.096C883.731 251.416 886.099 251.576 888.467 251.576C892.179 251.576 894.931 250.584 896.723 248.6C898.579 246.616 899.507 243.64 899.507 239.672V238.616C899.507 237.528 899.539 236.408 899.603 235.256C899.731 234.104 899.827 233.08 899.891 232.184H899.507C897.715 234.936 895.571 236.92 893.075 238.136C890.579 239.352 887.763 239.96 884.627 239.96C878.419 239.96 873.555 237.592 870.035 232.856C866.579 228.056 864.851 221.4 864.851 212.888C864.851 207.128 865.651 202.232 867.251 198.2C868.851 194.104 871.155 191 874.163 188.888C877.235 186.712 880.851 185.624 885.011 185.624ZM889.523 197.24C887.283 197.24 885.395 197.848 883.859 199.064C882.387 200.216 881.267 201.976 880.499 204.344C879.795 206.648 879.443 209.56 879.443 213.08C879.443 218.328 880.275 222.264 881.939 224.888C883.603 227.448 886.195 228.728 889.715 228.728C891.571 228.728 893.171 228.504 894.515 228.056C895.859 227.544 896.947 226.744 897.779 225.656C898.675 224.504 899.347 223.032 899.795 221.24C900.243 219.448 900.467 217.272 900.467 214.712V212.984C900.467 209.208 900.083 206.168 899.315 203.864C898.547 201.56 897.363 199.896 895.763 198.872C894.163 197.784 892.083 197.24 889.523 197.24ZM958.049 185.624C958.753 185.624 959.585 185.656 960.545 185.72C961.505 185.784 962.273 185.88 962.849 186.008L961.793 199.448C961.345 199.32 960.673 199.224 959.777 199.16C958.945 199.032 958.209 198.968 957.569 198.968C955.713 198.968 953.921 199.224 952.193 199.736C950.465 200.184 948.897 200.92 947.489 201.944C946.145 202.968 945.057 204.344 944.225 206.072C943.457 207.736 943.073 209.816 943.073 212.312V239H928.769V186.584H939.617L941.729 195.416H942.401C943.425 193.624 944.705 191.992 946.241 190.52C947.777 189.048 949.537 187.864 951.521 186.968C953.569 186.072 955.745 185.624 958.049 185.624ZM991.992 185.528C999.032 185.528 1004.41 187.064 1008.12 190.136C1011.9 193.144 1013.78 197.784 1013.78 204.056V239H1003.8L1001.02 231.896H1000.63C999.16 233.752 997.624 235.288 996.024 236.504C994.488 237.72 992.696 238.584 990.648 239.096C988.664 239.672 986.2 239.96 983.256 239.96C980.184 239.96 977.4 239.384 974.904 238.232C972.472 237.016 970.552 235.192 969.144 232.76C967.736 230.264 967.032 227.128 967.032 223.352C967.032 217.784 968.984 213.688 972.888 211.064C976.792 208.376 982.648 206.904 990.456 206.648L999.576 206.36V204.056C999.576 201.304 998.84 199.288 997.368 198.008C995.96 196.728 993.976 196.088 991.416 196.088C988.856 196.088 986.36 196.472 983.928 197.24C981.496 197.944 979.064 198.84 976.632 199.928L971.928 190.232C974.744 188.76 977.848 187.608 981.24 186.776C984.696 185.944 988.28 185.528 991.992 185.528ZM994.008 214.904C989.4 215.032 986.2 215.864 984.408 217.4C982.616 218.936 981.72 220.952 981.72 223.448C981.72 225.624 982.36 227.192 983.64 228.152C984.92 229.048 986.584 229.496 988.632 229.496C991.704 229.496 994.296 228.6 996.408 226.808C998.52 224.952 999.576 222.36 999.576 219.032V214.712L994.008 214.904ZM1089.96 185.624C1095.91 185.624 1100.39 187.16 1103.4 190.232C1106.47 193.24 1108.01 198.104 1108.01 204.824V239H1093.71V208.376C1093.71 204.6 1093.07 201.784 1091.79 199.928C1090.51 198.008 1088.52 197.048 1085.83 197.048C1082.06 197.048 1079.37 198.392 1077.77 201.08C1076.17 203.768 1075.37 207.64 1075.37 212.696V239H1061.07V208.376C1061.07 205.88 1060.78 203.8 1060.2 202.136C1059.63 200.472 1058.76 199.224 1057.61 198.392C1056.46 197.496 1054.99 197.048 1053.19 197.048C1050.57 197.048 1048.49 197.72 1046.95 199.064C1045.42 200.408 1044.33 202.36 1043.69 204.92C1043.05 207.48 1042.73 210.616 1042.73 214.328V239H1028.43V186.584H1039.37L1041.29 193.304H1042.06C1043.15 191.512 1044.49 190.072 1046.09 188.984C1047.69 187.832 1049.45 187 1051.37 186.488C1053.35 185.912 1055.34 185.624 1057.32 185.624C1061.16 185.624 1064.43 186.264 1067.11 187.544C1069.8 188.76 1071.85 190.68 1073.26 193.304H1074.51C1076.11 190.616 1078.31 188.664 1081.13 187.448C1084.01 186.232 1086.95 185.624 1089.96 185.624ZM1209.21 185.624C1215.16 185.624 1219.64 187.16 1222.65 190.232C1225.72 193.24 1227.26 198.104 1227.26 204.824V239H1212.96V208.376C1212.96 204.6 1212.32 201.784 1211.04 199.928C1209.76 198.008 1207.77 197.048 1205.08 197.048C1201.31 197.048 1198.62 198.392 1197.02 201.08C1195.42 203.768 1194.62 207.64 1194.62 212.696V239H1180.32V208.376C1180.32 205.88 1180.03 203.8 1179.45 202.136C1178.88 200.472 1178.01 199.224 1176.86 198.392C1175.71 197.496 1174.24 197.048 1172.44 197.048C1169.82 197.048 1167.74 197.72 1166.2 199.064C1164.67 200.408 1163.58 202.36 1162.94 204.92C1162.3 207.48 1161.98 210.616 1161.98 214.328V239H1147.68V186.584H1158.62L1160.54 193.304H1161.31C1162.4 191.512 1163.74 190.072 1165.34 188.984C1166.94 187.832 1168.7 187 1170.62 186.488C1172.6 185.912 1174.59 185.624 1176.57 185.624C1180.41 185.624 1183.68 186.264 1186.36 187.544C1189.05 188.76 1191.1 190.68 1192.51 193.304H1193.76C1195.36 190.616 1197.56 188.664 1200.38 187.448C1203.26 186.232 1206.2 185.624 1209.21 185.624ZM1256.29 186.584V239H1241.99V186.584H1256.29ZM1249.19 166.04C1251.3 166.04 1253.12 166.552 1254.66 167.576C1256.2 168.536 1256.96 170.36 1256.96 173.048C1256.96 175.672 1256.2 177.496 1254.66 178.52C1253.12 179.544 1251.3 180.056 1249.19 180.056C1247.01 180.056 1245.16 179.544 1243.62 178.52C1242.15 177.496 1241.41 175.672 1241.41 173.048C1241.41 170.36 1242.15 168.536 1243.62 167.576C1245.16 166.552 1247.01 166.04 1249.19 166.04ZM1301 185.624C1306.63 185.624 1311.14 187.16 1314.53 190.232C1317.93 193.24 1319.62 198.104 1319.62 204.824V239H1305.32V208.376C1305.32 204.6 1304.65 201.784 1303.3 199.928C1301.96 198.008 1299.81 197.048 1296.87 197.048C1292.52 197.048 1289.54 198.552 1287.94 201.56C1286.34 204.504 1285.54 208.76 1285.54 214.328V239H1271.24V186.584H1282.18L1284.1 193.304H1284.87C1286.02 191.512 1287.43 190.072 1289.09 188.984C1290.76 187.832 1292.61 187 1294.66 186.488C1296.71 185.912 1298.82 185.624 1301 185.624ZM1348.64 186.584V239H1334.33V186.584H1348.64ZM1341.53 166.04C1343.64 166.04 1345.47 166.552 1347 167.576C1348.54 168.536 1349.31 170.36 1349.31 173.048C1349.31 175.672 1348.54 177.496 1347 178.52C1345.47 179.544 1343.64 180.056 1341.53 180.056C1339.36 180.056 1337.5 179.544 1335.96 178.52C1334.49 177.496 1333.76 175.672 1333.76 173.048C1333.76 170.36 1334.49 168.536 1335.96 167.576C1337.5 166.552 1339.36 166.04 1341.53 166.04ZM1410.02 185.528C1417.06 185.528 1422.44 187.064 1426.15 190.136C1429.93 193.144 1431.82 197.784 1431.82 204.056V239H1421.83L1419.05 231.896H1418.66C1417.19 233.752 1415.66 235.288 1414.06 236.504C1412.52 237.72 1410.73 238.584 1408.68 239.096C1406.7 239.672 1404.23 239.96 1401.29 239.96C1398.22 239.96 1395.43 239.384 1392.94 238.232C1390.5 237.016 1388.58 235.192 1387.18 232.76C1385.77 230.264 1385.06 227.128 1385.06 223.352C1385.06 217.784 1387.02 213.688 1390.92 211.064C1394.82 208.376 1400.68 206.904 1408.49 206.648L1417.61 206.36V204.056C1417.61 201.304 1416.87 199.288 1415.4 198.008C1413.99 196.728 1412.01 196.088 1409.45 196.088C1406.89 196.088 1404.39 196.472 1401.96 197.24C1399.53 197.944 1397.1 198.84 1394.66 199.928L1389.96 190.232C1392.78 188.76 1395.88 187.608 1399.27 186.776C1402.73 185.944 1406.31 185.528 1410.02 185.528ZM1412.04 214.904C1407.43 215.032 1404.23 215.864 1402.44 217.4C1400.65 218.936 1399.75 220.952 1399.75 223.448C1399.75 225.624 1400.39 227.192 1401.67 228.152C1402.95 229.048 1404.62 229.496 1406.66 229.496C1409.74 229.496 1412.33 228.6 1414.44 226.808C1416.55 224.952 1417.61 222.36 1417.61 219.032V214.712L1412.04 214.904ZM1475.64 185.624C1481.53 185.624 1486.3 187.928 1489.94 192.536C1493.59 197.08 1495.42 203.8 1495.42 212.696C1495.42 218.648 1494.55 223.672 1492.82 227.768C1491.1 231.8 1488.73 234.84 1485.72 236.888C1482.71 238.936 1479.22 239.96 1475.26 239.96C1472.76 239.96 1470.58 239.64 1468.73 239C1466.94 238.36 1465.4 237.528 1464.12 236.504C1462.84 235.48 1461.72 234.392 1460.76 233.24H1459.99C1460.25 234.456 1460.44 235.736 1460.57 237.08C1460.7 238.36 1460.76 239.64 1460.76 240.92V262.04H1446.46V186.584H1458.07L1460.09 193.4H1460.76C1461.72 191.992 1462.87 190.712 1464.22 189.56C1465.56 188.344 1467.16 187.384 1469.02 186.68C1470.94 185.976 1473.14 185.624 1475.64 185.624ZM1471.03 197.048C1468.54 197.048 1466.55 197.56 1465.08 198.584C1463.61 199.608 1462.52 201.176 1461.82 203.288C1461.18 205.336 1460.82 207.928 1460.76 211.064V212.6C1460.76 215.992 1461.08 218.872 1461.72 221.24C1462.36 223.544 1463.45 225.304 1464.98 226.52C1466.52 227.736 1468.6 228.344 1471.22 228.344C1473.4 228.344 1475.19 227.736 1476.6 226.52C1478.01 225.304 1479.06 223.512 1479.77 221.144C1480.47 218.776 1480.82 215.896 1480.82 212.504C1480.82 207.384 1480.02 203.544 1478.42 200.984C1476.89 198.36 1474.42 197.048 1471.03 197.048ZM1536.39 185.624C1542.28 185.624 1547.05 187.928 1550.69 192.536C1554.34 197.08 1556.17 203.8 1556.17 212.696C1556.17 218.648 1555.3 223.672 1553.57 227.768C1551.85 231.8 1549.48 234.84 1546.47 236.888C1543.46 238.936 1539.97 239.96 1536.01 239.96C1533.51 239.96 1531.33 239.64 1529.48 239C1527.69 238.36 1526.15 237.528 1524.87 236.504C1523.59 235.48 1522.47 234.392 1521.51 233.24H1520.74C1521 234.456 1521.19 235.736 1521.32 237.08C1521.45 238.36 1521.51 239.64 1521.51 240.92V262.04H1507.21V186.584H1518.82L1520.84 193.4H1521.51C1522.47 191.992 1523.62 190.712 1524.97 189.56C1526.31 188.344 1527.91 187.384 1529.77 186.68C1531.69 185.976 1533.89 185.624 1536.39 185.624ZM1531.78 197.048C1529.29 197.048 1527.3 197.56 1525.83 198.584C1524.36 199.608 1523.27 201.176 1522.57 203.288C1521.93 205.336 1521.57 207.928 1521.51 211.064V212.6C1521.51 215.992 1521.83 218.872 1522.47 221.24C1523.11 223.544 1524.2 225.304 1525.73 226.52C1527.27 227.736 1529.35 228.344 1531.97 228.344C1534.15 228.344 1535.94 227.736 1537.35 226.52C1538.76 225.304 1539.81 223.512 1540.52 221.144C1541.22 218.776 1541.57 215.896 1541.57 212.504C1541.57 207.384 1540.77 203.544 1539.17 200.984C1537.64 198.36 1535.17 197.048 1531.78 197.048ZM1604.53 223.448C1604.53 226.968 1603.7 229.976 1602.04 232.472C1600.37 234.904 1597.88 236.76 1594.55 238.04C1591.22 239.32 1587.09 239.96 1582.16 239.96C1578.52 239.96 1575.38 239.704 1572.76 239.192C1570.13 238.744 1567.51 237.976 1564.88 236.888V225.08C1567.7 226.36 1570.74 227.416 1574 228.248C1577.27 229.08 1580.15 229.496 1582.64 229.496C1585.46 229.496 1587.44 229.08 1588.6 228.248C1589.81 227.416 1590.42 226.328 1590.42 224.984C1590.42 224.088 1590.16 223.288 1589.65 222.584C1589.2 221.88 1588.18 221.08 1586.58 220.184C1584.98 219.288 1582.48 218.136 1579.09 216.728C1575.83 215.32 1573.14 213.944 1571.03 212.6C1568.92 211.192 1567.35 209.528 1566.32 207.608C1565.3 205.624 1564.79 203.16 1564.79 200.216C1564.79 195.352 1566.68 191.704 1570.45 189.272C1574.23 186.84 1579.25 185.624 1585.52 185.624C1588.79 185.624 1591.89 185.944 1594.84 186.584C1597.78 187.224 1600.82 188.28 1603.96 189.752L1599.64 200.024C1597.91 199.256 1596.24 198.584 1594.64 198.008C1593.04 197.432 1591.48 196.984 1589.94 196.664C1588.47 196.344 1586.93 196.184 1585.33 196.184C1583.22 196.184 1581.62 196.472 1580.53 197.048C1579.51 197.624 1579 198.488 1579 199.64C1579 200.472 1579.25 201.24 1579.76 201.944C1580.34 202.584 1581.4 203.288 1582.93 204.056C1584.53 204.824 1586.87 205.848 1589.94 207.128C1592.95 208.344 1595.54 209.624 1597.72 210.968C1599.89 212.248 1601.56 213.88 1602.71 215.864C1603.92 217.784 1604.53 220.312 1604.53 223.448ZM706.728 308.592C703.976 308.592 701.512 309.136 699.336 310.224C697.224 311.312 695.432 312.88 693.96 314.928C692.488 316.912 691.368 319.344 690.6 322.224C689.896 325.104 689.544 328.336 689.544 331.92C689.544 336.784 690.12 340.944 691.272 344.4C692.488 347.792 694.376 350.384 696.936 352.176C699.496 353.968 702.76 354.864 706.728 354.864C709.544 354.864 712.328 354.544 715.08 353.904C717.896 353.264 720.936 352.368 724.2 351.216V363.408C721.192 364.624 718.216 365.52 715.272 366.096C712.328 366.672 709.032 366.96 705.384 366.96C698.344 366.96 692.52 365.52 687.912 362.64C683.368 359.696 680.008 355.6 677.832 350.352C675.656 345.04 674.568 338.864 674.568 331.824C674.568 326.64 675.272 321.904 676.68 317.616C678.088 313.264 680.136 309.52 682.824 306.384C685.576 303.248 688.936 300.816 692.904 299.088C696.936 297.36 701.544 296.496 706.728 296.496C710.12 296.496 713.512 296.944 716.904 297.84C720.36 298.672 723.656 299.824 726.792 301.296L722.088 313.104C719.528 311.888 716.936 310.832 714.312 309.936C711.752 309.04 709.224 308.592 706.728 308.592ZM751.917 307.92C751.917 310.48 751.821 312.944 751.629 315.312C751.501 317.68 751.373 319.344 751.245 320.304H752.013C753.165 318.512 754.509 317.072 756.045 315.984C757.581 314.832 759.277 314 761.133 313.488C763.053 312.912 765.069 312.624 767.181 312.624C770.957 312.624 774.253 313.296 777.069 314.64C779.885 315.984 782.061 318.064 783.597 320.88C785.197 323.696 785.997 327.344 785.997 331.824V366H771.693V335.376C771.693 331.6 770.989 328.784 769.581 326.928C768.237 325.008 766.125 324.048 763.245 324.048C760.365 324.048 758.093 324.72 756.429 326.064C754.829 327.408 753.677 329.36 752.973 331.92C752.269 334.48 751.917 337.616 751.917 341.328V366H737.613V293.04H751.917V307.92ZM822.307 312.624C827.171 312.624 831.331 313.552 834.787 315.408C838.307 317.264 841.027 319.952 842.947 323.472C844.867 326.992 845.827 331.312 845.827 336.432V343.344H812.035C812.163 347.376 813.347 350.544 815.587 352.848C817.891 355.152 821.059 356.304 825.091 356.304C828.483 356.304 831.555 355.984 834.307 355.344C837.059 354.64 839.907 353.584 842.851 352.176V363.216C840.291 364.496 837.571 365.424 834.691 366C831.875 366.64 828.451 366.96 824.419 366.96C819.171 366.96 814.531 366 810.499 364.08C806.467 362.096 803.299 359.12 800.995 355.152C798.691 351.184 797.539 346.192 797.539 340.176C797.539 334.032 798.563 328.944 800.611 324.912C802.723 320.816 805.635 317.744 809.347 315.696C813.059 313.648 817.379 312.624 822.307 312.624ZM822.403 322.8C819.651 322.8 817.347 323.696 815.491 325.488C813.699 327.28 812.643 330.064 812.323 333.84H832.387C832.387 331.728 832.003 329.84 831.235 328.176C830.531 326.512 829.443 325.2 827.971 324.24C826.499 323.28 824.643 322.8 822.403 322.8ZM878.93 312.528C885.97 312.528 891.346 314.064 895.058 317.136C898.834 320.144 900.722 324.784 900.722 331.056V366H890.738L887.954 358.896H887.57C886.098 360.752 884.562 362.288 882.962 363.504C881.426 364.72 879.634 365.584 877.586 366.096C875.602 366.672 873.138 366.96 870.194 366.96C867.122 366.96 864.338 366.384 861.842 365.232C859.41 364.016 857.49 362.192 856.082 359.76C854.674 357.264 853.97 354.128 853.97 350.352C853.97 344.784 855.922 340.688 859.826 338.064C863.73 335.376 869.586 333.904 877.394 333.648L886.514 333.36V331.056C886.514 328.304 885.778 326.288 884.306 325.008C882.898 323.728 880.914 323.088 878.354 323.088C875.794 323.088 873.298 323.472 870.866 324.24C868.434 324.944 866.002 325.84 863.57 326.928L858.866 317.232C861.682 315.76 864.786 314.608 868.178 313.776C871.634 312.944 875.218 312.528 878.93 312.528ZM880.946 341.904C876.338 342.032 873.138 342.864 871.346 344.4C869.554 345.936 868.658 347.952 868.658 350.448C868.658 352.624 869.298 354.192 870.578 355.152C871.858 356.048 873.522 356.496 875.57 356.496C878.642 356.496 881.234 355.6 883.346 353.808C885.458 351.952 886.514 349.36 886.514 346.032V341.712L880.946 341.904ZM937.443 355.536C939.043 355.536 940.579 355.376 942.051 355.056C943.523 354.736 944.995 354.352 946.467 353.904V364.56C944.931 365.2 943.011 365.744 940.707 366.192C938.467 366.704 936.003 366.96 933.315 366.96C930.179 366.96 927.363 366.448 924.867 365.424C922.435 364.4 920.483 362.64 919.011 360.144C917.603 357.584 916.899 354.064 916.899 349.584V324.336H910.083V318.288L917.955 313.488L922.083 302.448H931.203V313.584H945.891V324.336H931.203V349.584C931.203 351.568 931.779 353.072 932.931 354.096C934.083 355.056 935.587 355.536 937.443 355.536ZM993.564 350.448C993.564 353.968 992.732 356.976 991.068 359.472C989.404 361.904 986.908 363.76 983.58 365.04C980.252 366.32 976.124 366.96 971.196 366.96C967.548 366.96 964.412 366.704 961.788 366.192C959.164 365.744 956.54 364.976 953.916 363.888V352.08C956.732 353.36 959.772 354.416 963.036 355.248C966.3 356.08 969.18 356.496 971.676 356.496C974.492 356.496 976.476 356.08 977.628 355.248C978.844 354.416 979.452 353.328 979.452 351.984C979.452 351.088 979.196 350.288 978.684 349.584C978.236 348.88 977.212 348.08 975.612 347.184C974.012 346.288 971.516 345.136 968.124 343.728C964.86 342.32 962.172 340.944 960.06 339.6C957.948 338.192 956.38 336.528 955.356 334.608C954.332 332.624 953.82 330.16 953.82 327.216C953.82 322.352 955.708 318.704 959.484 316.272C963.26 313.84 968.284 312.624 974.556 312.624C977.82 312.624 980.924 312.944 983.868 313.584C986.812 314.224 989.852 315.28 992.988 316.752L988.668 327.024C986.94 326.256 985.276 325.584 983.676 325.008C982.076 324.432 980.508 323.984 978.972 323.664C977.5 323.344 975.964 323.184 974.364 323.184C972.252 323.184 970.652 323.472 969.564 324.048C968.54 324.624 968.028 325.488 968.028 326.64C968.028 327.472 968.284 328.24 968.796 328.944C969.372 329.584 970.428 330.288 971.964 331.056C973.564 331.824 975.9 332.848 978.972 334.128C981.98 335.344 984.572 336.624 986.748 337.968C988.924 339.248 990.588 340.88 991.74 342.864C992.956 344.784 993.564 347.312 993.564 350.448ZM1019.01 307.92C1019.01 310.48 1018.91 312.944 1018.72 315.312C1018.59 317.68 1018.47 319.344 1018.34 320.304H1019.11C1020.26 318.512 1021.6 317.072 1023.14 315.984C1024.67 314.832 1026.37 314 1028.23 313.488C1030.15 312.912 1032.16 312.624 1034.27 312.624C1038.05 312.624 1041.35 313.296 1044.16 314.64C1046.98 315.984 1049.15 318.064 1050.69 320.88C1052.29 323.696 1053.09 327.344 1053.09 331.824V366H1038.79V335.376C1038.79 331.6 1038.08 328.784 1036.67 326.928C1035.33 325.008 1033.22 324.048 1030.34 324.048C1027.46 324.048 1025.19 324.72 1023.52 326.064C1021.92 327.408 1020.77 329.36 1020.07 331.92C1019.36 334.48 1019.01 337.616 1019.01 341.328V366H1004.71V293.04H1019.01V307.92ZM1089.4 312.624C1094.26 312.624 1098.42 313.552 1101.88 315.408C1105.4 317.264 1108.12 319.952 1110.04 323.472C1111.96 326.992 1112.92 331.312 1112.92 336.432V343.344H1079.13C1079.26 347.376 1080.44 350.544 1082.68 352.848C1084.98 355.152 1088.15 356.304 1092.18 356.304C1095.58 356.304 1098.65 355.984 1101.4 355.344C1104.15 354.64 1107 353.584 1109.94 352.176V363.216C1107.38 364.496 1104.66 365.424 1101.78 366C1098.97 366.64 1095.54 366.96 1091.51 366.96C1086.26 366.96 1081.62 366 1077.59 364.08C1073.56 362.096 1070.39 359.12 1068.09 355.152C1065.78 351.184 1064.63 346.192 1064.63 340.176C1064.63 334.032 1065.66 328.944 1067.7 324.912C1069.82 320.816 1072.73 317.744 1076.44 315.696C1080.15 313.648 1084.47 312.624 1089.4 312.624ZM1089.5 322.8C1086.74 322.8 1084.44 323.696 1082.58 325.488C1080.79 327.28 1079.74 330.064 1079.42 333.84H1099.48C1099.48 331.728 1099.1 329.84 1098.33 328.176C1097.62 326.512 1096.54 325.2 1095.06 324.24C1093.59 323.28 1091.74 322.8 1089.5 322.8ZM1146.12 312.624C1150.98 312.624 1155.14 313.552 1158.6 315.408C1162.12 317.264 1164.84 319.952 1166.76 323.472C1168.68 326.992 1169.64 331.312 1169.64 336.432V343.344H1135.85C1135.98 347.376 1137.16 350.544 1139.4 352.848C1141.7 355.152 1144.87 356.304 1148.9 356.304C1152.3 356.304 1155.37 355.984 1158.12 355.344C1160.87 354.64 1163.72 353.584 1166.66 352.176V363.216C1164.1 364.496 1161.38 365.424 1158.5 366C1155.69 366.64 1152.26 366.96 1148.23 366.96C1142.98 366.96 1138.34 366 1134.31 364.08C1130.28 362.096 1127.11 359.12 1124.81 355.152C1122.5 351.184 1121.35 346.192 1121.35 340.176C1121.35 334.032 1122.38 328.944 1124.42 324.912C1126.54 320.816 1129.45 317.744 1133.16 315.696C1136.87 313.648 1141.19 312.624 1146.12 312.624ZM1146.22 322.8C1143.46 322.8 1141.16 323.696 1139.3 325.488C1137.51 327.28 1136.46 330.064 1136.14 333.84H1156.2C1156.2 331.728 1155.82 329.84 1155.05 328.176C1154.34 326.512 1153.26 325.2 1151.78 324.24C1150.31 323.28 1148.46 322.8 1146.22 322.8ZM1203.32 355.536C1204.92 355.536 1206.45 355.376 1207.93 355.056C1209.4 354.736 1210.87 354.352 1212.34 353.904V364.56C1210.81 365.2 1208.89 365.744 1206.58 366.192C1204.34 366.704 1201.88 366.96 1199.19 366.96C1196.05 366.96 1193.24 366.448 1190.74 365.424C1188.31 364.4 1186.36 362.64 1184.89 360.144C1183.48 357.584 1182.77 354.064 1182.77 349.584V324.336H1175.96V318.288L1183.83 313.488L1187.96 302.448H1197.08V313.584H1211.77V324.336H1197.08V349.584C1197.08 351.568 1197.65 353.072 1198.81 354.096C1199.96 355.056 1201.46 355.536 1203.32 355.536Z" fill="white"/>
<defs>
<linearGradient id="paint0_linear_12_10" x1="462" y1="420" x2="462" y2="120" gradientUnits="userSpaceOnUse">
<stop stop-color="#1D93D2"/>
<stop offset="1" stop-color="#38B0E3"/>
</linearGradient>
<clipPath id="clip0_12_10">
<rect width="300" height="300" fill="white" transform="translate(312 120)"/>
</clipPath>
</defs>
</svg>
